<?xml version="1.0" standalone="no"?>
<!--Created with Sketsa SVG Editor (http://www.kiyut.com)-->
<svg contentScriptType="text/ecmascript" width="600.0px" xmlns:xlink="http://www.w3.org/1999/xlink" baseProfile="full"
    zoomAndPan="magnify" contentStyleType="text/css" height="600.0px" preserveAspectRatio="xMidYMid meet" xmlns="http://www.w3.org/2000/svg"
    version="1.0">
    <rect fill="none" x="32.0" width="51.0" height="90.0" y="58.0" stroke="#000000"/>
    <rect fill="none" x="32.0" width="51.0" y="199.0" height="90.0" stroke="#000000"/>
    <rect fill="none" x="35.0" width="51.0" y="350.0" height="90.0" stroke="#000000"/>
    <rect fill="none" x="34.0" width="51.0" height="90.0" y="493.0" stroke="#000000"/>
    <rect fill="none" x="132.0" width="51.0" y="58.0" height="90.0" stroke="#000000"/>
    <rect fill="none" x="132.0" width="51.0" height="90.0" y="199.0" stroke="#000000"/>
    <rect fill="none" x="135.0" width="51.0" height="90.0" y="350.0" stroke="#000000"/>
    <rect fill="none" x="134.0" width="51.0" y="493.0" height="90.0" stroke="#000000"/>
    <rect fill="none" x="232.0" width="51.0" y="57.0" height="90.0" stroke="#000000"/>
    <rect fill="none" x="232.0" width="51.0" height="90.0" y="198.0" stroke="#000000"/>
    <rect fill="none" x="235.0" width="51.0" height="90.0" y="349.0" stroke="#000000"/>
    <rect fill="none" x="234.0" width="51.0" y="492.0" height="90.0" stroke="#000000"/>
    <rect fill="#00ff99" x="332.0" width="51.0" y="59.0" height="90.0" stroke="#000000"/>
    <rect fill="none" x="332.0" width="51.0" height="90.0" y="200.0" stroke="#000000"/>
    <rect fill="none" x="335.0" width="51.0" height="90.0" y="351.0" stroke="#000000"/>
    <rect fill="none" x="334.0" width="51.0" y="494.0" height="90.0" stroke="#000000"/>
    <rect fill="none" x="432.0" width="51.0" y="58.0" height="90.0" stroke="#000000"/>
    <rect fill="none" x="432.0" width="51.0" height="90.0" y="199.0" stroke="#000000"/>
    <rect fill="none" x="435.0" width="51.0" height="90.0" y="350.0" stroke="#000000"/>
    <rect fill="none" x="434.0" width="51.0" y="493.0" height="90.0" stroke="#000000"/>
    <rect fill="none" x="520.0" width="51.0" y="60.0" height="90.0" stroke="#000000"/>
    <rect fill="none" x="520.0" width="51.0" height="90.0" y="201.0" stroke="#000000"/>
    <rect fill="none" x="523.0" width="51.0" height="90.0" y="352.0" stroke="#000000"/>
    <rect fill="none" x="522.0" width="51.0" y="495.0" height="90.0" stroke="#000000"/>
    <text x="65.0" y="98.0"><tspan xml:space="preserve">2 </tspan></text>
</svg>