<?xml version="1.0" standalone="no"?>
<!DOCTYPE svg PUBLIC "-//W3C//DTD SVG 20010904//EN"
 "http://www.w3.org/TR/2001/REC-SVG-20010904/DTD/svg10.dtd">
<svg version="1.0" xmlns="http://www.w3.org/2000/svg"
 width="866.000000pt" height="516.000000pt" viewBox="0 0 866.000000 516.000000"
 preserveAspectRatio="xMidYMid meet">
<metadata>
Created by potrace 1.12, written by Peter Selinger 2001-2015
</metadata>
<g transform="translate(0.000000,516.000000) scale(0.100000,-0.100000)"
fill="#000000" stroke="none">
<path d="M4752 4853 l3558 -3 3 -2173 2 -2172 3 2178 2 2177 -3562 -2 -3563
-3 3557 -2z"/>
<path d="M1220 4210 l0 -500 300 0 300 0 0 500 0 500 -300 0 -300 0 0 -500z
m590 0 l0 -490 -290 0 -290 0 0 490 0 490 290 0 290 0 0 -490z"/>
<path d="M2320 4210 l0 -500 300 0 300 0 0 500 0 500 -300 0 -300 0 0 -500z
m590 0 l0 -490 -290 0 -290 0 0 490 0 490 290 0 290 0 0 -490z"/>
<path d="M3520 4210 l0 -500 300 0 300 0 0 500 0 500 -300 0 -300 0 0 -500z
m590 0 l0 -490 -290 0 -290 0 0 490 0 490 290 0 290 0 0 -490z"/>
<path d="M4620 4210 l0 -500 300 0 300 0 0 500 0 500 -300 0 -300 0 0 -500z
m590 0 l0 -490 -290 0 -290 0 0 490 0 490 290 0 290 0 0 -490z"/>
<path d="M5820 4210 l0 -500 300 0 300 0 0 500 0 500 -300 0 -300 0 0 -500z
m590 0 l0 -490 -290 0 -290 0 0 490 0 490 290 0 290 0 0 -490z"/>
<path d="M7120 4210 l0 -500 300 0 300 0 0 500 0 500 -300 0 -300 0 0 -500z
m590 0 l0 -490 -290 0 -290 0 0 490 0 490 290 0 290 0 0 -490z"/>
<path d="M222 2583 l-2 -2123 3551 0 c2060 0 3548 -4 3545 -9 -3 -5 3 -11 13
-14 14 -3 17 0 14 14 -5 19 -94 19 -3559 19 l-3554 0 -3 2118 -2 2117 -3
-2122z"/>
<path d="M1220 2810 l0 -500 300 0 300 0 0 500 0 500 -300 0 -300 0 0 -500z
m590 0 l0 -490 -290 0 -290 0 0 490 0 490 290 0 290 0 0 -490z"/>
<path d="M2320 2810 l0 -500 300 0 300 0 0 500 0 500 -300 0 -300 0 0 -500z
m590 0 l0 -490 -290 0 -290 0 0 490 0 490 290 0 290 0 0 -490z"/>
<path d="M3520 2810 l0 -500 300 0 300 0 0 500 0 500 -300 0 -300 0 0 -500z
m590 0 l0 -490 -290 0 -290 0 0 490 0 490 290 0 290 0 0 -490z"/>
<path d="M4620 2810 l0 -500 300 0 300 0 0 500 0 500 -300 0 -300 0 0 -500z
m590 0 l0 -490 -290 0 -290 0 0 490 0 490 290 0 290 0 0 -490z"/>
<path d="M5820 2810 l0 -500 300 0 300 0 0 500 0 500 -300 0 -300 0 0 -500z
m590 0 l0 -490 -290 0 -290 0 0 490 0 490 290 0 290 0 0 -490z"/>
<path d="M7120 2810 l0 -500 300 0 300 0 0 500 0 500 -300 0 -300 0 0 -500z
m590 0 l0 -490 -290 0 -290 0 0 490 0 490 290 0 290 0 0 -490z"/>
<path d="M1220 1310 l0 -500 300 0 300 0 0 500 0 500 -300 0 -300 0 0 -500z
m590 0 l0 -490 -290 0 -290 0 0 490 0 490 290 0 290 0 0 -490z"/>
<path d="M2320 1310 l0 -500 300 0 300 0 0 500 0 500 -300 0 -300 0 0 -500z
m590 0 l0 -490 -290 0 -290 0 0 490 0 490 290 0 290 0 0 -490z"/>
<path d="M3520 1310 l0 -500 300 0 300 0 0 500 0 500 -300 0 -300 0 0 -500z
m590 0 l0 -490 -290 0 -290 0 0 490 0 490 290 0 290 0 0 -490z"/>
<path d="M4620 1310 l0 -500 300 0 300 0 0 500 0 500 -300 0 -300 0 0 -500z
m590 0 l0 -490 -290 0 -290 0 0 490 0 490 290 0 290 0 0 -490z"/>
<path d="M5820 1310 l0 -500 300 0 300 0 0 500 0 500 -300 0 -300 0 0 -500z
m590 0 l0 -490 -290 0 -290 0 0 490 0 490 290 0 290 0 0 -490z"/>
<path d="M7120 1310 l0 -500 300 0 300 0 0 500 0 500 -300 0 -300 0 0 -500z
m590 0 l0 -490 -290 0 -290 0 0 490 0 490 290 0 290 0 0 -490z"/>
</g>
</svg>
