<?xml version="1.0" standalone="no"?>
<!DOCTYPE svg PUBLIC "-//W3C//DTD SVG 20010904//EN"
 "http://www.w3.org/TR/2001/REC-SVG-20010904/DTD/svg10.dtd">
<svg version="1.0" xmlns="http://www.w3.org/2000/svg"
 width="600.000000pt" height="450.000000pt" viewBox="0 0 600.000000 450.000000"
 preserveAspectRatio="xMidYMid meet">
<metadata>
Created by potrace 1.12, written by Peter Selinger 2001-2015
</metadata>
<g transform="translate(0.000000,450.000000) scale(0.100000,-0.100000)"
fill="#000000" stroke="none">
<path d="M10 4241 l0 -139 525 0 525 1 0 138 0 139 -525 0 -525 0 0 -139z
m144 78 c58 -27 54 -125 -5 -150 -26 -10 -34 -9 -57 8 -21 15 -28 30 -30 62
-4 51 12 74 65 90 1 1 13 -4 27 -10z m847 -25 c35 -42 2 -137 -39 -115 -11 6
-24 6 -33 0 -21 -13 -24 -12 -42 27 -17 35 -15 65 5 92 15 18 93 15 109 -4z"/>
<path d="M3108 4373 c-3 -7 -2 -87 1 -165 1 -17 24 -18 341 -18 233 0 340 -3
340 -11 0 -6 5 -7 13 -2 6 4 73 10 147 14 121 5 112 5 -92 7 -206 2 -227 4
-231 20 -4 16 -5 16 -6 0 -1 -14 -10 -18 -45 -18 -34 0 -46 4 -49 18 -4 16 -5
16 -6 0 -1 -14 -10 -18 -45 -18 -34 0 -46 4 -49 18 -4 15 -5 15 -6 0 -1 -14
-14 -17 -91 -17 -74 0 -92 3 -100 17 -9 16 -9 16 -10 0 0 -15 -9 -18 -50 -18
l-50 0 0 85 0 85 685 -2 c377 -2 685 0 685 5 0 4 -310 7 -689 7 -380 0 -691
-3 -693 -7z"/>
<path d="M1896 4258 c-7 -30 22 -108 42 -108 12 0 12 3 2 15 -7 9 -10 18 -7
22 4 3 15 -5 26 -18 11 -13 23 -21 27 -17 4 4 1 14 -6 23 -7 8 -8 15 -2 15 5
0 12 -6 15 -14 3 -8 16 -20 29 -27 22 -12 22 -12 5 15 -22 33 -14 34 19 1 14
-14 27 -25 31 -25 3 0 -2 11 -11 25 -9 14 -12 25 -6 25 5 0 15 -9 22 -20 17
-27 31 -25 22 3 l-6 22 25 -23 c17 -16 27 -20 32 -12 5 8 11 8 21 -1 19 -16
30 -4 14 16 -20 24 -1 17 26 -10 30 -30 38 -32 24 -6 -11 22 -13 41 -2 26 4
-5 16 -17 26 -25 18 -14 19 -13 14 8 -4 12 -4 22 -1 22 3 0 13 -10 23 -22 10
-13 22 -20 26 -16 4 4 1 14 -6 23 -20 24 -1 17 26 -10 33 -33 39 -32 18 5 -17
28 -21 29 -98 32 l-81 3 -3 39 c-3 37 -4 38 -18 18 -11 -17 -12 -26 -2 -47 8
-18 8 -29 1 -36 -8 -8 -16 -2 -29 22 -14 26 -19 30 -22 17 -3 -16 -16 -18 -97
-18 -100 0 -108 4 -99 54 5 32 -11 35 -20 4z"/>
<path d="M3785 3948 l0 -213 -587 -2 c-513 -2 -588 -1 -588 12 0 19 -16 19
-24 0 -3 -8 -11 -15 -17 -15 -8 0 -8 4 1 15 7 9 10 18 6 22 -3 4 -21 -10 -40
-30 -26 -29 -38 -35 -57 -30 -22 6 -23 5 -10 -11 12 -15 12 -19 -2 -34 -13
-12 -17 -13 -17 -3 0 11 -3 11 -15 1 -8 -7 -15 -19 -15 -26 0 -14 -31 -20 -43
-8 -3 3 3 15 14 27 25 27 24 42 -3 61 -15 11 -26 12 -39 6 -24 -13 -32 -13
-23 1 4 7 1 10 -7 7 -8 -3 -15 -21 -17 -42 -2 -27 0 -36 8 -31 7 4 10 16 7 26
-3 11 -1 19 4 19 4 0 8 -16 7 -35 -1 -19 -5 -32 -9 -30 -21 14 -39 -9 -41 -54
l-1 -46 -6 55 c-5 43 -3 56 9 62 12 5 12 7 -2 7 -14 1 -18 10 -18 41 0 37 2
40 23 35 15 -4 28 -1 37 10 19 23 3 31 -20 10 -18 -16 -20 -16 -20 -2 0 20 -7
21 -24 5 -9 -9 -11 -43 -9 -115 2 -65 0 -103 -7 -103 -5 0 -10 -9 -10 -20 0
-15 -7 -20 -27 -21 -24 -2 -25 -2 -5 -6 21 -4 32 -33 12 -33 -21 0 -51 41 -45
61 4 13 2 19 -9 19 -9 0 -16 12 -19 33 -2 17 -5 -39 -5 -125 -1 -87 1 -158 6
-158 4 0 6 40 4 90 -3 82 -2 90 15 89 10 0 13 -3 6 -6 -15 -6 -18 -154 -4
-168 5 -6 11 -21 13 -34 2 -19 10 -25 36 -27 21 -3 32 1 32 9 0 9 2 9 9 -1 6
-11 78 -13 357 -12 437 3 683 3 1194 1 223 -1 406 2 407 6 2 4 111 6 244 3
132 -3 242 -3 244 -2 2 2 85 3 184 2 134 0 181 2 181 11 0 9 -42 11 -169 7
-113 -4 -173 -2 -180 5 -7 7 -18 7 -35 -1 -26 -11 -400 -16 -443 -5 -23 5 -23
8 -23 152 l0 146 -79 -3 c-70 -3 -80 -1 -84 15 -4 16 -5 16 -6 1 -1 -15 -11
-18 -61 -18 -47 0 -60 3 -60 15 0 8 -4 15 -10 15 -5 0 -10 28 -12 63 l-3 62
-38 3 c-27 2 -37 0 -35 -10 2 -8 -7 -13 -22 -13 -14 0 -24 5 -23 12 4 19 -349
12 -372 -7 -12 -10 -21 -11 -34 -3 -10 6 -85 14 -167 18 -122 6 -157 4 -194
-9 -48 -17 -59 -14 -40 9 10 12 69 14 416 15 265 0 405 -4 409 -11 5 -7 11 -6
21 2 7 6 34 9 59 7 25 -2 45 0 45 4 0 5 -27 8 -60 8 l-60 0 0 215 c0 118 -3
215 -7 215 -5 0 -8 -96 -8 -212z"/>
<path d="M10 3875 l0 -135 525 0 525 0 0 135 0 135 -525 0 -525 0 0 -135z"/>
<path d="M80 3295 l0 -175 155 0 155 0 0 175 0 175 -155 0 -155 0 0 -175z
m220 -41 c13 -33 12 -75 -1 -94 -8 -11 -12 -12 -16 -2 -3 7 -24 12 -54 12 -32
0 -49 -4 -50 -12 0 -7 -7 2 -15 21 -12 26 -13 40 -4 67 11 34 12 34 71 34 55
0 60 -2 69 -26z"/>
<path d="M590 3295 l0 -176 153 3 152 3 0 170 0 170 -152 3 -153 3 0 -176z"/>
<path d="M5648 3463 l32 -4 0 -215 0 -214 -34 0 c-19 0 -36 6 -38 12 -3 7 -5
-5 -6 -27 0 -33 1 -36 8 -17 7 16 18 22 39 22 l31 0 0 -235 0 -235 -35 0 c-27
0 -34 4 -38 23 -2 12 -5 4 -5 -18 0 -22 2 -34 5 -27 2 6 20 12 39 12 l33 0 4
-117 c1 -65 4 144 5 465 l2 582 -37 -2 c-37 -1 -37 -1 -5 -5z"/>
<path d="M4202 3038 l-2 -188 -201 0 c-164 0 -200 -2 -196 -13 3 -8 1 -20 -4
-28 -6 -10 -9 -7 -9 14 l0 27 -200 0 -200 0 -1 -27 -1 -28 -11 28 -11 27 -192
0 c-145 0 -194 -3 -197 -12 -4 -10 -7 -10 -14 0 -7 9 -56 12 -209 10 -192 -3
-199 -4 -196 -23 3 -20 2 -20 -13 -1 -14 18 -15 -5 -15 -235 0 -146 4 -248 9
-240 5 7 7 54 4 105 -2 50 0 118 5 151 8 52 10 37 11 -101 l1 -161 29 -1 c21
0 28 3 25 13 -4 9 1 13 15 12 12 -1 21 -7 21 -14 0 -7 7 -13 15 -13 23 0 19
177 -4 183 -10 3 -8 5 7 6 21 1 22 -2 23 -101 0 -57 3 -98 5 -92 3 7 14 10 24
7 15 -4 20 0 20 13 1 17 2 17 13 3 11 -15 61 -34 53 -21 -2 4 0 16 5 27 7 19
8 19 8 -2 1 -18 6 -21 33 -19 17 1 34 8 36 14 2 7 8 12 14 12 6 0 8 -7 4 -15
-3 -9 0 -15 9 -15 8 0 15 4 15 9 0 12 43 1 52 -13 4 -6 8 37 8 97 0 59 4 107
9 107 4 0 7 -43 5 -95 -3 -94 5 -122 25 -88 6 10 11 12 11 6 0 -7 5 -13 11
-13 5 0 8 4 4 9 -3 5 -1 12 4 15 5 3 12 -4 17 -17 5 -15 10 12 14 83 l6 105 2
-97 c2 -89 14 -133 25 -91 4 14 5 15 6 2 1 -12 9 -14 33 -11 28 4 30 6 13 13
-19 7 -19 8 1 8 12 1 24 -6 28 -14 3 -9 12 -12 22 -8 13 5 15 3 9 -7 -6 -10
-4 -11 6 -4 15 10 18 10 52 14 17 2 18 3 5 7 -10 2 -18 9 -18 14 0 17 20 9 41
-15 17 -20 25 -23 39 -14 16 10 18 26 16 130 -2 66 1 121 6 124 6 4 9 -4 8
-17 -1 -13 -2 -72 -1 -131 l1 -108 30 0 c17 0 29 5 27 11 -1 6 6 13 16 14 9 2
17 -1 17 -6 0 -5 -6 -9 -12 -9 -9 0 -8 -3 2 -10 10 -6 19 -5 29 4 11 12 21 12
50 3 20 -7 47 -12 61 -12 24 0 25 3 26 73 2 105 14 102 15 -4 1 -49 4 -80 6
-70 4 15 7 16 14 5 7 -11 13 -9 27 9 18 23 19 23 37 5 10 -10 22 -18 27 -18 5
0 13 -7 18 -15 6 -10 11 71 12 230 l3 245 2 -227 c2 -134 7 -228 13 -228 5 0
11 37 13 83 l3 82 2 -82 c2 -66 5 -83 17 -83 8 0 15 7 15 15 0 16 29 10 43 -9
5 -7 10 -6 17 4 6 9 10 10 10 3 0 -14 53 -10 58 5 1 5 13 7 24 4 21 -5 21 -6
2 -13 -16 -6 -15 -8 9 -8 l27 -1 0 89 0 90 -52 4 -53 3 58 2 58 2 -1 -97 c-2
-125 -2 -120 13 -98 9 11 16 14 21 7 3 -5 20 -8 36 -6 27 5 30 3 31 -23 1 -26
2 -26 10 7 5 19 7 70 4 113 -4 50 -2 77 5 77 6 0 10 -34 10 -91 0 -57 4 -88
10 -84 6 4 10 90 10 225 0 165 3 220 13 223 9 4 9 7 0 14 -9 7 -13 67 -16 218
l-2 210 -3 -187z"/>
<path d="M2290 3175 c-2 -27 -3 -27 -8 -8 -9 28 -33 16 -27 -12 2 -11 4 -63 4
-116 1 -88 3 -97 21 -102 22 -6 26 3 9 20 -7 7 -6 12 6 17 11 4 15 1 13 -12
-2 -12 5 -18 23 -20 30 -4 46 22 28 44 -9 11 -8 14 4 14 10 0 14 -9 13 -30 -1
-19 3 -30 10 -30 10 0 13 30 11 122 l-2 123 -42 2 c-40 1 -43 0 -44 -25 -1
-23 -3 -22 -9 8 l-7 35 -3 -30z"/>
<path d="M80 3060 c0 -45 2 -50 23 -50 12 0 33 -3 47 -5 23 -5 23 -4 -4 8 -22
11 -25 15 -13 20 9 3 17 2 19 -3 2 -5 15 -12 31 -15 26 -7 27 -5 27 28 0 19
-6 38 -12 40 -7 3 3 5 22 5 19 0 27 -2 18 -5 -21 -5 -23 -14 -6 -31 9 -9 9
-12 0 -12 -19 0 -14 -27 7 -33 24 -6 50 8 30 16 -11 4 -11 6 1 6 12 1 13 3 1
10 -9 6 -11 18 -7 35 6 23 9 25 26 14 18 -12 19 -13 2 -20 -16 -6 -16 -7 1 -7
20 -1 24 -41 5 -41 -10 0 -10 -2 -1 -8 7 -4 30 -6 53 -4 l40 4 0 49 0 49 -155
0 -155 0 0 -50z"/>
<path d="M590 3061 c0 -46 2 -50 28 -54 35 -7 132 -2 157 9 11 4 23 12 27 18
5 7 8 7 8 -2 0 -7 -10 -17 -22 -21 -16 -6 -2 -8 42 -6 36 2 67 4 69 4 3 1 -4
8 -15 17 -16 13 -16 15 -1 10 14 -4 17 1 17 34 l0 40 -155 0 -155 0 0 -49z"/>
<path d="M2238 2903 c-2 -5 -5 -43 -7 -85 l-2 -76 83 -4 c115 -4 131 -1 145
27 6 14 8 23 3 20 -4 -3 -7 24 -6 60 l1 65 -107 0 c-59 0 -108 -3 -110 -7z"/>
<path d="M1712 2618 c-1 -55 2 -98 8 -100 5 -1 10 -49 11 -106 1 -84 4 -104
18 -110 20 -10 308 -8 317 1 7 6 -35 8 -256 11 -45 1 -65 5 -64 14 1 6 2 68 3
137 1 123 1 125 24 124 16 -1 18 -2 5 -6 -10 -2 -18 -11 -18 -19 0 -11 4 -12
18 -3 14 9 23 9 38 0 17 -11 17 -12 1 -7 -21 7 -57 -9 -57 -25 0 -6 8 -5 21 2
16 8 24 8 33 -2 8 -9 8 -10 -1 -5 -7 4 -21 2 -31 -3 -16 -8 -18 -21 -17 -83 3
-94 6 -110 14 -73 5 21 12 29 24 27 9 -2 17 2 17 8 0 10 -15 14 -35 10 -5 -1
-6 2 -2 6 11 12 36 14 42 3 4 -5 2 -24 -3 -43 -10 -34 -10 -34 24 -33 29 1 34
5 34 24 0 24 7 26 65 25 16 -1 33 4 37 11 5 7 6 -5 4 -25 -3 -21 -1 -40 4 -43
14 -9 17 16 14 100 -2 77 -1 71 12 -44 4 -34 9 -49 14 -41 4 7 6 20 3 27 -5
11 2 14 26 11 20 -2 35 3 41 12 7 11 10 8 10 -15 0 -16 3 -40 6 -52 5 -18 2
-23 -12 -23 -16 0 -17 -2 -4 -10 26 -17 30 -11 31 53 0 41 3 55 8 42 6 -14 8
-7 8 25 0 36 -1 40 -7 20 -6 -19 -8 -13 -9 27 -1 32 4 53 12 56 9 4 9 8 0 14
-6 4 -13 24 -15 43 l-3 35 -197 2 -198 2 -2 -42 c-1 -23 -5 -1 -8 48 l-6 90
-2 -97z"/>
<path d="M260 1640 l0 -690 517 -2 517 -3 3 -49 c3 -45 9 -66 16 -55 1 2 0 54
-4 114 -3 61 -6 86 -7 58 l-2 -53 -65 0 -64 0 -4 83 -3 82 -2 -82 c-2 -80 -3
-83 -26 -83 -13 0 -27 7 -30 16 -11 28 -7 406 4 399 5 -3 7 0 4 8 -4 10 3 13
26 9 24 -3 30 -1 30 14 0 14 -3 15 -12 6 -17 -17 -36 -15 -41 6 -4 16 -5 16
-6 0 0 -10 -5 -18 -11 -18 -6 0 -10 -80 -10 -220 l0 -220 -195 0 c-107 0 -195
4 -195 8 0 5 -7 9 -15 9 -8 0 -15 -4 -15 -9 0 -4 -47 -8 -105 -8 -75 0 -105 3
-105 12 0 9 -3 9 -12 0 -7 -7 -42 -12 -89 -12 -61 0 -78 3 -83 16 -3 9 -6 100
-6 204 0 142 3 189 12 193 11 4 11 7 0 18 -16 17 -17 440 -1 456 8 8 8 13 0
17 -16 10 -15 198 1 214 9 9 9 15 0 24 -16 16 -16 200 0 216 9 9 8 12 -5 12
-15 0 -16 -53 -17 -690z"/>
<path d="M2280 2316 c0 -9 -6 -16 -12 -17 -7 -1 -2 -5 12 -9 24 -8 24 -8 3 -9
-13 -1 -23 -7 -23 -16 0 -9 6 -12 17 -8 11 4 14 3 9 -5 -4 -7 -14 -12 -22 -12
-8 0 -14 -6 -14 -12 0 -7 -5 -5 -11 5 -12 21 -29 22 -29 2 0 -8 5 -15 10 -15
6 0 10 -7 10 -16 0 -14 3 -14 15 -4 11 9 15 9 15 1 0 -7 5 -9 12 -5 8 5 9 2 5
-9 -5 -14 0 -17 23 -17 17 0 30 5 30 10 0 6 -4 10 -10 10 -5 0 -10 12 -10 26
0 23 2 25 16 13 9 -7 20 -22 25 -34 8 -19 9 -19 6 2 -1 12 3 22 8 22 6 0 9 -9
8 -20 -2 -11 3 -19 12 -19 8 0 15 9 15 20 0 11 4 20 9 20 17 0 17 34 2 67 -17
35 -32 44 -24 14 4 -15 0 -18 -23 -15 -16 1 -32 -2 -36 -9 -5 -8 -9 -6 -14 7
-4 11 -2 21 7 27 9 5 10 9 2 9 -6 0 -18 3 -27 6 -11 4 -16 1 -16 -10z"/>
<path d="M5601 2283 c0 -12 -7 -28 -13 -35 -7 -7 -45 -56 -84 -108 -39 -52
-157 -211 -263 -353 -106 -141 -197 -255 -202 -252 -5 4 -6 -2 -2 -11 5 -13 3
-15 -7 -9 -8 5 -11 4 -6 -3 4 -6 0 -19 -8 -29 -8 -10 -70 -92 -137 -182 -143
-194 -137 -186 -168 -217 -13 -13 -21 -24 -17 -24 4 0 -16 -30 -44 -66 -27
-37 -50 -71 -50 -76 0 -5 -4 -6 -10 -3 -5 3 -10 0 -10 -7 -1 -7 -9 -23 -19
-36 -15 -17 -30 -22 -70 -22 -28 0 -51 -4 -51 -9 0 -15 111 -6 120 10 5 8 35
49 67 91 32 42 67 89 78 104 11 15 39 52 62 83 23 31 67 90 97 131 30 41 89
120 130 175 41 55 101 135 133 178 83 112 89 120 188 251 50 66 95 126 100
134 6 9 36 50 68 91 94 123 129 179 124 198 -4 14 -5 14 -6 -4z"/>
<path d="M2420 2145 c0 -8 -4 -15 -10 -15 -5 0 -10 -4 -10 -10 0 -5 7 -10 16
-10 8 0 13 -4 10 -8 -3 -5 -18 -7 -33 -5 l-28 5 2 -79 c1 -43 2 -86 2 -95 1
-11 9 -18 20 -18 15 0 19 6 17 28 -1 15 -5 32 -9 38 -4 7 0 14 8 17 10 4 14
-1 13 -16 -2 -54 2 -67 22 -67 12 0 20 7 20 16 0 14 2 14 16 -1 24 -24 38 -13
37 28 0 24 3 34 11 30 6 -4 5 0 -2 9 -8 10 -10 29 -7 49 4 19 4 53 0 77 l-6
42 -45 0 c-32 0 -44 -4 -44 -15z"/>
<path d="M4205 1891 c-6 -11 -117 -12 -615 -8 -334 4 -610 4 -613 1 -2 -3
-104 -5 -226 -5 l-221 0 0 -299 c0 -208 3 -300 11 -300 6 0 9 15 8 34 -2 19 0
38 4 42 4 4 7 -14 7 -39 0 -26 3 -48 8 -48 4 -1 371 -3 816 -4 669 -2 810 -5
817 -16 5 -9 9 12 9 54 l0 67 144 0 145 0 3 -37 c3 -35 6 -38 41 -44 27 -4 37
-2 37 8 0 8 -12 13 -35 13 -32 0 -35 3 -35 29 0 16 5 31 12 33 6 2 8 10 4 16
-5 8 -52 12 -156 12 l-148 0 -4 60 c-3 58 -2 60 22 61 23 2 23 2 3 6 -21 4
-22 9 -25 156 -2 126 0 154 12 164 10 9 12 15 4 20 -6 5 -13 15 -16 23 -3 11
-6 12 -13 1z"/>
<path d="M1730 1881 c0 -7 -42 -11 -119 -11 -66 0 -121 -3 -123 -7 -2 -5 -1
-35 3 -68 l6 -60 1 63 c2 48 5 62 17 62 12 0 15 -13 15 -55 0 -37 -4 -55 -12
-55 -10 0 -10 -2 0 -9 10 -6 12 -37 10 -129 -2 -67 0 -122 5 -122 4 0 7 83 7
185 l0 185 81 0 c56 0 85 -4 95 -14 11 -11 14 -48 14 -165 l0 -151 200 0 200
0 -1 -37 c0 -29 -2 -33 -8 -18 -5 11 -6 25 -4 31 3 9 -50 12 -194 12 -109 0
-187 -3 -173 -5 23 -5 24 -6 5 -14 -16 -6 -12 -8 18 -8 20 -1 37 -5 37 -11 0
-12 -15 -13 -59 -4 l-31 6 -3 177 c-2 173 -3 172 -5 -51 l-2 -228 -52 0 c-28
0 -48 -3 -44 -7 3 -4 29 -6 58 -4 34 2 54 -2 59 -11 6 -9 8 -6 6 9 -2 12 -6
26 -10 29 -4 4 -7 22 -7 41 0 27 4 33 21 33 20 0 21 -4 16 -50 l-6 -50 64 0
c59 0 65 2 65 21 0 18 5 20 53 17 38 -2 52 -7 52 -18 0 -12 17 -16 85 -18 l85
-3 1 213 c1 146 -2 215 -10 220 -8 5 -7 8 2 8 6 0 12 5 12 10 0 6 -7 10 -16
10 -14 0 -14 1 0 16 9 8 16 19 16 24 0 5 -93 9 -206 10 -114 0 -210 3 -215 6
-5 3 -9 0 -9 -5z"/>
<path d="M2278 1312 l-38 -3 0 -50 c0 -27 5 -49 10 -49 6 0 10 -5 10 -11 0 -5
-4 -7 -10 -4 -5 3 -10 -3 -10 -14 0 -12 3 -21 8 -22 4 0 52 -1 107 -2 l100 -2
1 58 c2 102 2 102 -74 102 -37 0 -84 -1 -104 -3z"/>
<path d="M2508 1114 c-2 -53 1 -90 6 -87 5 4 5 0 1 -8 -13 -20 -13 -48 -1 -52
9 -4 115 -2 139 2 5 0 5 6 1 13 -4 7 -7 32 -5 56 1 25 -3 50 -11 59 -9 12 -10
15 0 9 9 -5 12 3 12 33 0 54 -8 71 -34 70 -21 0 -21 -1 -1 -10 16 -7 13 -8
-10 -3 -16 3 -44 7 -62 8 l-32 3 -3 -93z"/>
<path d="M4204 992 l1 -142 -199 0 c-110 0 -196 3 -193 7 4 3 82 7 174 8 208
3 193 2 192 23 0 9 -2 13 -5 7 -3 -7 -218 -9 -624 -8 -347 1 -620 -2 -620 -7
0 -5 8 -14 18 -19 12 -7 -44 -10 -187 -11 -112 0 -201 3 -197 7 4 4 84 7 178
8 131 0 172 3 176 13 3 10 -66 12 -362 9 -312 -4 -369 -2 -381 10 -13 13 -15
13 -15 -1 0 -8 5 -18 10 -21 6 -3 88 -6 183 -6 94 0 179 -4 187 -9 10 -6 -56
-10 -187 -10 -174 0 -203 2 -203 15 0 8 -4 15 -10 15 -5 0 -10 -7 -10 -15 0
-13 -28 -15 -190 -15 -104 0 -190 -4 -190 -9 0 -4 272 -6 613 -4 338 2 611 8
610 13 -2 5 5 11 15 13 27 8 370 2 378 -6 4 -4 -80 -7 -186 -7 -106 0 -191 -2
-189 -4 8 -8 1428 -10 1435 -3 12 12 2 13 -98 7 -90 -5 -98 -4 -108 15 -5 11
-11 76 -13 145 -3 121 -3 121 -3 -18z"/>
<path d="M4845 817 c-3 -7 -4 -136 -3 -287 l3 -275 513 -3 512 -2 -2 287 -3
288 -508 3 c-404 2 -509 0 -512 -11z"/>
</g>
</svg>
